<svg width="168" height="40" viewBox="0 0 168 40" fill="none" xmlns="http://www.w3.org/2000/svg">
<path d="M32 0C33.9794 0 35.7898 0.720217 37.1865 1.91113L2.82227 11.3779C20.6403 20.0562 20.6525 20.0697 28.0176 36.5742L38.21 2.95898C39.3283 4.33498 40 6.08865 40 8V32C40 36.4183 36.4183 40 32 40H10.5889C12.3589 39.6433 14.0475 38.7806 15.4199 37.4082C19.1289 33.6993 19.1288 27.6856 15.4199 23.9766C11.7109 20.2675 5.6973 20.2675 1.98828 23.9766C1.12263 24.8422 0.461573 25.8345 0 26.8926V8C0 3.58172 3.58172 6.44256e-08 8 0H32Z" fill="#5EABD6"/>
<path d="M58.1094 31.3906C56.3281 31.3906 54.7708 31.1302 53.4375 30.6094C52.1146 30.0781 51.0729 29.3229 50.3125 28.3438C49.5521 27.3542 49.125 26.1667 49.0312 24.7812L49.0156 24.5312H53.4688L53.5 24.7031C53.6042 25.2865 53.8646 25.7917 54.2812 26.2188C54.7083 26.6354 55.2604 26.9635 55.9375 27.2031C56.6146 27.4323 57.3802 27.5469 58.2344 27.5469C59.1094 27.5469 59.8594 27.4323 60.4844 27.2031C61.1198 26.9635 61.6094 26.6302 61.9531 26.2031C62.3073 25.7656 62.4844 25.2604 62.4844 24.6875V24.6719C62.4844 23.9115 62.1823 23.3177 61.5781 22.8906C60.9844 22.4531 59.9844 22.0885 58.5781 21.7969L56.2031 21.3281C53.9844 20.8802 52.3125 20.125 51.1875 19.0625C50.0625 18 49.5 16.6198 49.5 14.9219V14.9062C49.5 13.5312 49.8698 12.3333 50.6094 11.3125C51.349 10.2812 52.3646 9.48438 53.6562 8.92188C54.9479 8.34896 56.4271 8.0625 58.0938 8.0625C59.8333 8.0625 61.3333 8.33333 62.5938 8.875C63.8646 9.41667 64.8542 10.1823 65.5625 11.1719C66.2708 12.1615 66.6615 13.3125 66.7344 14.625L66.75 14.9219H62.2969L62.2812 14.7344C62.1979 14.1406 61.974 13.6354 61.6094 13.2188C61.2448 12.7917 60.7604 12.4635 60.1562 12.2344C59.5625 12.0052 58.875 11.8906 58.0938 11.8906C57.2917 11.8906 56.599 12.0104 56.0156 12.25C55.4323 12.4792 54.9844 12.7969 54.6719 13.2031C54.3698 13.6094 54.2188 14.0833 54.2188 14.625V14.6406C54.2188 15.349 54.5208 15.9219 55.125 16.3594C55.7292 16.7969 56.6771 17.1458 57.9688 17.4062L60.3594 17.8906C61.9323 18.2031 63.224 18.6354 64.2344 19.1875C65.2448 19.7396 65.9896 20.4375 66.4688 21.2812C66.9583 22.1146 67.2031 23.1198 67.2031 24.2969V24.3125C67.2031 25.7604 66.8385 27.0156 66.1094 28.0781C65.3906 29.1302 64.349 29.9479 62.9844 30.5312C61.6302 31.1042 60.0052 31.3906 58.1094 31.3906ZM70.0938 31V8.45312H74.8125V31H70.0938ZM78.5625 31V8.45312H84.0156L90.4219 24.6562H90.5156L96.9219 8.45312H102.375V31H98.1719V15.75H95.9844L100.703 9.07812L91.9531 31H88.9844L80.2344 9.07812L84.9531 15.75H82.7656V31H78.5625ZM110.656 24.3281V18.7656H110.953L119.219 8.45312H124.469L116.188 18.6406H115.266L110.656 24.3281ZM106.125 31V8.45312H110.844V31H106.125ZM119.406 31L112.172 20.3125L115.578 17.2188L125.047 31H119.406ZM125.594 31L133.469 8.45312H137.625V12.8281H136.188L130.547 31H125.594ZM129.828 25.5312L130.984 22H141.5L142.656 25.5312H129.828ZM141.922 31L136.281 12.8281V8.45312H139.016L146.875 31H141.922ZM156.953 31.3906C155.172 31.3906 153.615 31.1302 152.281 30.6094C150.958 30.0781 149.917 29.3229 149.156 28.3438C148.396 27.3542 147.969 26.1667 147.875 24.7812L147.859 24.5312H152.312L152.344 24.7031C152.448 25.2865 152.708 25.7917 153.125 26.2188C153.552 26.6354 154.104 26.9635 154.781 27.2031C155.458 27.4323 156.224 27.5469 157.078 27.5469C157.953 27.5469 158.703 27.4323 159.328 27.2031C159.964 26.9635 160.453 26.6302 160.797 26.2031C161.151 25.7656 161.328 25.2604 161.328 24.6875V24.6719C161.328 23.9115 161.026 23.3177 160.422 22.8906C159.828 22.4531 158.828 22.0885 157.422 21.7969L155.047 21.3281C152.828 20.8802 151.156 20.125 150.031 19.0625C148.906 18 148.344 16.6198 148.344 14.9219V14.9062C148.344 13.5312 148.714 12.3333 149.453 11.3125C150.193 10.2812 151.208 9.48438 152.5 8.92188C153.792 8.34896 155.271 8.0625 156.938 8.0625C158.677 8.0625 160.177 8.33333 161.438 8.875C162.708 9.41667 163.698 10.1823 164.406 11.1719C165.115 12.1615 165.505 13.3125 165.578 14.625L165.594 14.9219H161.141L161.125 14.7344C161.042 14.1406 160.818 13.6354 160.453 13.2188C160.089 12.7917 159.604 12.4635 159 12.2344C158.406 12.0052 157.719 11.8906 156.938 11.8906C156.135 11.8906 155.443 12.0104 154.859 12.25C154.276 12.4792 153.828 12.7969 153.516 13.2031C153.214 13.6094 153.062 14.0833 153.062 14.625V14.6406C153.062 15.349 153.365 15.9219 153.969 16.3594C154.573 16.7969 155.521 17.1458 156.812 17.4062L159.203 17.8906C160.776 18.2031 162.068 18.6354 163.078 19.1875C164.089 19.7396 164.833 20.4375 165.312 21.2812C165.802 22.1146 166.047 23.1198 166.047 24.2969V24.3125C166.047 25.7604 165.682 27.0156 164.953 28.0781C164.234 29.1302 163.193 29.9479 161.828 30.5312C160.474 31.1042 158.849 31.3906 156.953 31.3906Z" fill="#5EABD6"/>
</svg>
