<svg width="40" height="40" viewBox="0 0 40 40" fill="none" xmlns="http://www.w3.org/2000/svg">
<path d="M32 0C33.9794 0 35.7898 0.720217 37.1865 1.91113L2.82227 11.3779C20.6403 20.0562 20.6525 20.0697 28.0176 36.5742L38.21 2.95898C39.3283 4.33498 40 6.08865 40 8V32C40 36.4183 36.4183 40 32 40H10.5889C12.3589 39.6433 14.0475 38.7806 15.4199 37.4082C19.1289 33.6993 19.1288 27.6856 15.4199 23.9766C11.7109 20.2675 5.6973 20.2675 1.98828 23.9766C1.12263 24.8422 0.461573 25.8345 0 26.8926V8C0 3.58172 3.58172 6.44256e-08 8 0H32Z" fill="#5EABD6"/>
</svg>
